<svg xmlns="http://www.w3.org/2000/svg" viewBox="0 0 1200 900" role="img" aria-label="Stylized game day crowd">
  <defs>
    <linearGradient id="bg" x1="0" y1="0" x2="1" y2="1">
      <stop offset="0" stop-color="#101723"/>
      <stop offset="1" stop-color="#04060a"/>
    </linearGradient>
    <radialGradient id="blue" cx="50%" cy="24%" r="70%">
      <stop offset="0" stop-color="#6db6ff" stop-opacity="0.24"/>
      <stop offset="1" stop-color="#6db6ff" stop-opacity="0"/>
    </radialGradient>
  </defs>
  <rect width="1200" height="900" fill="url(#bg)"/>
  <circle cx="600" cy="250" r="320" fill="url(#blue)"/>
  <rect x="120" y="150" width="960" height="470" rx="40" fill="#0f1725" stroke="#31465f" stroke-width="3"/>
  <rect x="180" y="210" width="840" height="280" rx="20" fill="#0b101a" stroke="#324660" stroke-width="2"/>
  <g fill="#1b2739">
    <rect x="210" y="236" width="120" height="120" rx="16"/>
    <rect x="350" y="236" width="120" height="120" rx="16"/>
    <rect x="490" y="236" width="120" height="120" rx="16"/>
    <rect x="630" y="236" width="120" height="120" rx="16"/>
    <rect x="770" y="236" width="120" height="120" rx="16"/>
  </g>
  <g fill="#d6dde7">
    <circle cx="250" cy="410" r="44" opacity="0.32"/>
    <circle cx="340" cy="410" r="44" opacity="0.32"/>
    <circle cx="430" cy="410" r="44" opacity="0.32"/>
    <circle cx="520" cy="410" r="44" opacity="0.32"/>
    <circle cx="610" cy="410" r="44" opacity="0.32"/>
    <circle cx="700" cy="410" r="44" opacity="0.32"/>
    <circle cx="790" cy="410" r="44" opacity="0.32"/>
    <circle cx="880" cy="410" r="44" opacity="0.32"/>
  </g>
  <rect x="190" y="500" width="820" height="20" rx="10" fill="#f2b24d" opacity="0.5"/>
  <text x="78" y="826" fill="#cbd8e8" font-family="Arial, sans-serif" font-size="18" letter-spacing="2.8">GAME DAY / CROWD / BIG SCREENS</text>
</svg>
