<svg xmlns="http://www.w3.org/2000/svg" viewBox="0 0 1200 900" role="img" aria-label="Stylized sports bar interior">
  <defs>
    <linearGradient id="bg" x1="0" y1="0" x2="1" y2="1">
      <stop offset="0" stop-color="#0a1220"/>
      <stop offset="0.55" stop-color="#111d2f"/>
      <stop offset="1" stop-color="#04080f"/>
    </linearGradient>
    <linearGradient id="glowBlue" x1="0" y1="0" x2="1" y2="1">
      <stop offset="0" stop-color="#7cc0ff" stop-opacity="0.95"/>
      <stop offset="1" stop-color="#2d77d6" stop-opacity="0.2"/>
    </linearGradient>
    <linearGradient id="glowAmber" x1="0" y1="0" x2="1" y2="1">
      <stop offset="0" stop-color="#ffd67e" stop-opacity="0.95"/>
      <stop offset="1" stop-color="#f2b24d" stop-opacity="0.18"/>
    </linearGradient>
    <linearGradient id="barTop" x1="0" y1="0" x2="0" y2="1">
      <stop offset="0" stop-color="#2a1f16"/>
      <stop offset="1" stop-color="#141014"/>
    </linearGradient>
    <filter id="blur" x="-20%" y="-20%" width="140%" height="140%">
      <feGaussianBlur stdDeviation="16"/>
    </filter>
  </defs>
  <rect width="1200" height="900" fill="url(#bg)"/>
  <ellipse cx="260" cy="190" rx="170" ry="110" fill="#7cc0ff" opacity="0.18" filter="url(#blur)"/>
  <ellipse cx="920" cy="180" rx="180" ry="110" fill="#f2b24d" opacity="0.18" filter="url(#blur)"/>
  <ellipse cx="830" cy="690" rx="220" ry="120" fill="#7cc0ff" opacity="0.12" filter="url(#blur)"/>
  <rect x="0" y="250" width="1200" height="260" fill="#0d1726"/>
  <g opacity="0.96">
    <rect x="110" y="110" width="150" height="92" rx="16" fill="#07101a" stroke="#2f4662" stroke-width="2"/>
    <rect x="285" y="110" width="150" height="92" rx="16" fill="#07101a" stroke="#2f4662" stroke-width="2"/>
    <rect x="460" y="110" width="150" height="92" rx="16" fill="#07101a" stroke="#2f4662" stroke-width="2"/>
    <rect x="635" y="110" width="150" height="92" rx="16" fill="#07101a" stroke="#2f4662" stroke-width="2"/>
    <rect x="810" y="110" width="150" height="92" rx="16" fill="#07101a" stroke="#2f4662" stroke-width="2"/>
    <rect x="985" y="110" width="110" height="92" rx="16" fill="#07101a" stroke="#2f4662" stroke-width="2"/>
    <rect x="128" y="128" width="118" height="56" rx="8" fill="#102033"/>
    <rect x="303" y="128" width="118" height="56" rx="8" fill="#1d3558"/>
    <rect x="478" y="128" width="118" height="56" rx="8" fill="#132742"/>
    <rect x="653" y="128" width="118" height="56" rx="8" fill="#284c79"/>
    <rect x="828" y="128" width="118" height="56" rx="8" fill="#17304f"/>
    <rect x="1003" y="128" width="78" height="56" rx="8" fill="#203756"/>
  </g>
  <rect x="0" y="560" width="1200" height="340" fill="#050a10"/>
  <rect x="72" y="562" width="1056" height="34" rx="17" fill="#261d17"/>
  <rect x="110" y="596" width="980" height="170" rx="32" fill="url(#barTop)"/>
  <rect x="110" y="596" width="980" height="22" rx="11" fill="#402e1f"/>
  <rect x="140" y="628" width="88" height="108" rx="18" fill="#0f1b2c" stroke="#334d6d" stroke-width="2"/>
  <rect x="248" y="642" width="88" height="94" rx="18" fill="#15233a" stroke="#334d6d" stroke-width="2"/>
  <rect x="356" y="628" width="88" height="108" rx="18" fill="#0f1b2c" stroke="#334d6d" stroke-width="2"/>
  <rect x="464" y="642" width="88" height="94" rx="18" fill="#15233a" stroke="#334d6d" stroke-width="2"/>
  <rect x="572" y="628" width="88" height="108" rx="18" fill="#0f1b2c" stroke="#334d6d" stroke-width="2"/>
  <rect x="680" y="642" width="88" height="94" rx="18" fill="#15233a" stroke="#334d6d" stroke-width="2"/>
  <rect x="788" y="628" width="88" height="108" rx="18" fill="#0f1b2c" stroke="#334d6d" stroke-width="2"/>
  <rect x="896" y="642" width="138" height="94" rx="18" fill="#15233a" stroke="#334d6d" stroke-width="2"/>
  <circle cx="198" cy="528" r="18" fill="#f2b24d"/>
  <circle cx="414" cy="512" r="16" fill="#7cc0ff"/>
  <circle cx="630" cy="520" r="18" fill="#f2b24d"/>
  <circle cx="846" cy="506" r="16" fill="#7cc0ff"/>
  <circle cx="1038" cy="522" r="18" fill="#f2b24d"/>
  <rect x="210" y="490" width="780" height="22" rx="11" fill="#cfd8e7" opacity="0.08"/>
  <text x="72" y="842" fill="#cdd9e8" font-family="Arial, sans-serif" font-size="20" letter-spacing="3">THE SCOREBOARD</text>
</svg>
