<svg xmlns="http://www.w3.org/2000/svg" viewBox="0 0 1200 900" role="img" aria-label="Stylized karaoke stage">
  <defs>
    <linearGradient id="bg" x1="0" y1="0" x2="1" y2="1">
      <stop offset="0" stop-color="#0b1220"/>
      <stop offset="1" stop-color="#05060a"/>
    </linearGradient>
    <radialGradient id="pink" cx="50%" cy="32%" r="70%">
      <stop offset="0" stop-color="#ff81c8" stop-opacity="0.28"/>
      <stop offset="1" stop-color="#ff81c8" stop-opacity="0"/>
    </radialGradient>
  </defs>
  <rect width="1200" height="900" fill="url(#bg)"/>
  <circle cx="600" cy="290" r="330" fill="url(#pink)"/>
  <rect x="210" y="230" width="780" height="410" rx="36" fill="#111a2b" stroke="#33485f" stroke-width="3"/>
  <rect x="290" y="310" width="620" height="150" rx="24" fill="#171f31"/>
  <circle cx="350" cy="295" r="28" fill="#ff81c8"/>
  <circle cx="430" cy="295" r="28" fill="#f2b24d"/>
  <circle cx="510" cy="295" r="28" fill="#7cc0ff"/>
  <circle cx="590" cy="295" r="28" fill="#ff81c8"/>
  <circle cx="670" cy="295" r="28" fill="#f2b24d"/>
  <circle cx="750" cy="295" r="28" fill="#7cc0ff"/>
  <rect x="570" y="420" width="18" height="170" rx="9" fill="#d6dde7"/>
  <rect x="530" y="385" width="98" height="28" rx="14" fill="#d6dde7"/>
  <circle cx="580" cy="389" r="26" fill="#1a2234" stroke="#d6dde7" stroke-width="8"/>
  <rect x="430" y="514" width="340" height="42" rx="21" fill="#ff81c8" opacity="0.42"/>
  <text x="78" y="826" fill="#cbd8e8" font-family="Arial, sans-serif" font-size="18" letter-spacing="2.8">KARAOKE / MIC ON / WEEKLY NIGHT</text>
</svg>
